<?xml version="1.0" encoding="UTF-8"?>
<!DOCTYPE svg PUBLIC "-//W3C//DTD SVG 1.1//EN" "http://www.w3.org/Graphics/SVG/1.1/DTD/svg11.dtd">
<!-- Creator: CorelDRAW 2021 (64-Bit) -->
<svg xmlns="http://www.w3.org/2000/svg" xml:space="preserve" width="210mm" height="297mm" version="1.1" style="shape-rendering:geometricPrecision; text-rendering:geometricPrecision; image-rendering:optimizeQuality; fill-rule:evenodd; clip-rule:evenodd"
viewBox="0 0 21000 29700"
 xmlns:xlink="http://www.w3.org/1999/xlink"
 xmlns:xodm="http://www.corel.com/coreldraw/odm/2003">
 <defs>
  <style type="text/css">
   <![CDATA[
    .str0 {stroke:black;stroke-width:7.62;stroke-miterlimit:22.9256}
    .fil1 {fill:none}
    .fil0 {fill:#010101}
    .fil2 {fill:white}
   ]]>
  </style>
   <clipPath id="id0">
    <path d="M12758.05 11435.79c-242.8,-551.21 -664.35,-1172.68 -1017.05,-1765.06 -334.47,-561.74 -865.5,-816.41 -1437.91,-844.59 -237.34,-11.67 -479.29,-13.35 -713.72,35.65 -259.91,54.3 -535.02,194.02 -623.14,343.52 -12.69,11.91 -248.62,202.68 -397.54,784.28 -209.08,816.58 -880.41,1793.82 -908.8,1862.59 -634.46,1535.85 75.2,2789.2 2010.14,3016.78 722.85,85 1543.96,22.98 2172.81,-261.55 1219.92,-551.97 1888.08,-1769.55 915.21,-3171.62z"/>
   </clipPath>
   <clipPath id="id1">
    <path d="M12758.05 11435.79c-242.8,-551.21 -664.35,-1172.68 -1017.05,-1765.06 -334.47,-561.74 -865.5,-816.41 -1437.91,-844.59 -237.34,-11.67 -479.29,-13.35 -713.72,35.65 -259.91,54.3 -535.02,194.02 -623.14,343.52 -12.69,11.91 -248.62,202.68 -397.54,784.28 -209.08,816.58 -880.41,1793.82 -908.8,1862.59 -634.46,1535.85 75.2,2789.2 2010.14,3016.78 722.85,85 1543.96,22.98 2172.81,-261.55 1219.92,-551.97 1888.08,-1769.55 915.21,-3171.62z"/>
   </clipPath>
 </defs>
 <g id="Layer_x0020_1">
  <metadata id="CorelCorpID_0Corel-Layer"/>
  <path class="fil0" d="M12758.05 11435.79c-242.8,-551.21 -664.35,-1172.68 -1017.05,-1765.06 -334.47,-561.74 -865.5,-816.41 -1437.91,-844.59 -237.34,-11.67 -479.29,-13.35 -713.72,35.65 -259.91,54.3 -535.02,194.02 -623.14,343.52 -12.69,11.91 -248.62,202.68 -397.54,784.28 -209.08,816.58 -880.41,1793.82 -908.8,1862.59 -634.46,1535.85 75.2,2789.2 2010.14,3016.78 722.85,85 1543.96,22.98 2172.81,-261.55 1219.92,-551.97 1888.08,-1769.55 915.21,-3171.62z"/>
  <g style="clip-path:url(#id0)">
   <g id="_2036696581216">
   </g>
  </g>
  <path id="_1" class="fil1" d="M12758.05 11435.79c-242.8,-551.21 -664.35,-1172.68 -1017.05,-1765.06 -334.47,-561.74 -865.5,-816.41 -1437.91,-844.59 -237.34,-11.67 -479.29,-13.35 -713.72,35.65 -259.91,54.3 -535.02,194.02 -623.14,343.52 -12.69,11.91 -248.62,202.68 -397.54,784.28 -209.08,816.58 -880.41,1793.82 -908.8,1862.59 -634.46,1535.85 75.2,2789.2 2010.14,3016.78 722.85,85 1543.96,22.98 2172.81,-261.55 1219.92,-551.97 1888.08,-1769.55 915.21,-3171.62z"/>
  <g style="clip-path:url(#id1)">
   <path id="_2" class="fil1 str0" d="M7433.69 8819.29l5790.57 6084.89m0 -6084.89l-5790.57 6084.89"/>
  </g>
  <polygon class="fil2" points="10215.56,25978.87 10628.64,25978.87 10628.64,25201.46 10215.56,25201.46 "/>
 </g>
</svg>
